# xmcd
#
# Track frame offsets:
#       150
#       16405
#       28476
#       37422
#       48513
#       57283
#       66278
#       71169
#       81438
#       98146
#       102744
#       115997
#       118512
#       131276
#       139829
#       156025
#       166448
#       182519
#       204661
#       222099
#       228128
#       238258
#       255962
#       262587
#
# Disc length: 3589 seconds
#
# Revision: 1
# Processed by: cddbd v1.4PL0 Copyright (c) Steve Scherf et al.
# Submitted via: MusiCat 1.1
#
DISCID=5e0e0318
DTITLE=Various Artist - K.R.Wood's Fathers of Texas
DYEAR=1997
DGENRE=
TTITLE0=Red Steagall - Lone Star Dream
TTITLE1=Red Steagall - Fathers of Texas
TTITLE2=Gary P Nunn - The Old 300
TTITLE3=Delbert McClinton and Rusty Weir - Come and Take it
TTITLE4=Skeet Anglin - Texas Ragtag Army
TTITLE5=Steven Fromholz - Who will go with Ol' Ben Milam
TTITLE6=Durango Ron Wood - Ben Milam Poem
TTITLE7=Ray Willie Hubbard - Santa Anna: Napoleon of the West
TTITLE8=Delbert McClinton - Old Alamo
TTITLE9=Guick Koch - Travis's Letter
TTITLE10=Reg Lindsey and John Guthrie - Bonham's Last Ride
TTITLE11=Tom T Hall and C.B.Stubblefeld and Guy Clark and Steven Fromholtz - Three M
TTITLE11=an Stood Tall
TTITLE12=Townes van Zandt - Will you come to the Bower
TTITLE13=Ray Willie Hubbard and Ricky Yanez - Deguello
TTITLE14=John Guthrie - The Day the Alamo Fell
TTITLE15=Eliza Gilkyson - Mother of the Alamo
TTITLE16=Alex harvey - Men of Goliad
TTITLE17=Townes van Zandt - Brazos River Song
TTITLE18=Ray Willie Hubbard and T. Gozney Thornton - General Sam Houston
TTITLE19=Rusty Weir and Shake Russel - When are we gonna fight
TTITLE20=Red Steagall and Shake Russel and K.R.Wood and Johnny Boy Lee and Johnny Dee 
TTITLE20=Remember the Alamo - The Battle of San Jacinto
TTITLE21=Charles John Quartro - Alamo Poem
TTITLE22=Durango Ron Wood - Fathers of Texas reprise Poem
TTITLE23=Red Steagall - Lone Star Dream reprise
EXTD=1997\n\n\nsubmitted by Stamppot
EXTT0=
EXTT1=
EXTT2=
EXTT3=
EXTT4=
EXTT5=
EXTT6=
EXTT7=
EXTT8=
EXTT9=
EXTT10=
EXTT11=
EXTT12=
EXTT13=
EXTT14=
EXTT15=
EXTT16=
EXTT17=
EXTT18=
EXTT19=
EXTT20=
EXTT21=
EXTT22=
EXTT23=
PLAYORDER=
